# xmcd
#
# Track frame offsets: 
#        150
#        24047
#        45939
#        66021
#        87495
#        108787
#        130279
#        149681
#        169885
#        190314
#        211275
#        233542
#        253214
#
# Disc length: 3655 seconds
#
# Revision: 0
# Processed by: cddbd v1.5.2PL0 Copyright (c) Steve Scherf et al.
# Submitted via: ExactAudioCopy v0.99pb5
#
DISCID=af0e450d
DTITLE=蕾亭 - 愛情苦酒
DYEAR=2009
DGENRE=Blues
TTITLE0=難忍的悲
TTITLE1=給我一次痛你的機會
TTITLE2=愛情苦酒
TTITLE3=你不是我的月亮我不是你的雲
TTITLE4=傷了我傷了你自己
TTITLE5=我用一生來等你
TTITLE6=從此我該怎麼過
TTITLE7=放手去愛
TTITLE8=一相情願
TTITLE9=你的愛給了誰
TTITLE10=分手在那個秋天
TTITLE11=單身情歌
TTITLE12=一場游戲一場夢
EXTD=
EXTT0=
EXTT1=
EXTT2=
EXTT3=
EXTT4=
EXTT5=
EXTT6=
EXTT7=
EXTT8=
EXTT9=
EXTT10=
EXTT11=
EXTT12=
PLAYORDER=
